Patient4_TMGait_0pt5_01_right_26_EMG.mot
version=1
nRows=33
nColumns=33
inDegrees=no
endheader
time	1LAddLong	2LGlutMax	3LGlutMed	4LIliopsoas	5LSemiMemb	6LBicFemLong	7LRecFem	8LVastMed	9LVastLat	10LGasMed	11LTibAnt	12lTibPost	13LPeroneusLong	14LSol	15LExtDigLong	16LFlexDigLong	17RAddLong	18RGlutMax	19RGlutMed	20RIliopsoas	21RSemiMemb	22RBicFemLong	23RRecFem	24RVastMed	25RVastLat	26RGasMed	27RTibAnt	28RTibPost	29RPeroneusLong	30RSol	31RExtDigLong	32RFlexDigLong
35.055	-0.011139	-0.012665	-0.016174	0.016022	-0.11749	-0.20294	0.10422	-0.014801	-0.1033	-0.026093	0.03067	0.00824	0.33737	0.024872	-0.62408	0.00824	0.039063	0.015259	0.1471	0.027924	-0.028687	0.019073	-0.19836	0.028992	0.015106	0.028229	-0.71549	-0.003357	1.0239	-0.25253	-0.001984	-0.011292
35.056	-0.022278	0.054016	-0.049286	0.025787	-0.059967	-0.34805	0.15396	-0.019836	-0.32166	-0.049286	-0.032349	0.008698	0.65155	0.04776	-0.7431	0.000916	0.024109	0.032196	0.18112	0.003204	-0.036621	-0.076141	-0.21255	-0.019379	-0.006714	0.017548	0.089722	-0.000153	0.88882	-0.2356	-0.001526	-0.013123
35.057	-0.028992	0.041809	-0.010071	0.024261	0.059509	-0.33981	0.21179	-0.006561	-0.41489	0.006714	-0.16251	0.007782	0.59601	-0.079803	-0.95245	0.00351	0.002136	0.006866	0.16968	-0.01297	-0.034637	-0.082703	-0.18692	0.010529	0.014648	0.005493	1.0107	-0.006104	0.4747	-0.24597	-0.001678	-0.023041
35.058	-0.041656	0.016327	0.014343	0.028992	0.02243	-0.12741	0.19257	0.010071	-0.2243	0.037384	-0.18555	0.010071	0.26657	-0.11261	-0.82611	0.001984	-0.00946	0.012665	0.16678	-0.011444	-0.048218	-0.050964	-0.19836	0.020142	0.020905	-0.007019	0.71701	-0.005341	-0.65338	0.047455	-0.002899	-0.023651
35.059	-0.041504	-0.036469	0.032196	0.013428	-0.066223	0.099792	0.22018	0.017853	-0.092773	0.069885	-0.13962	0.004578	-0.53741	-0.24078	-0.46051	0.003204	-0.072632	0.016479	0.18784	-0.04425	-0.057831	-0.024261	-0.22964	0.023651	0.02121	-0.013428	0.036926	-0.010071	-1.2895	0.35294	-0.001373	-0.027466
35.06	-0.052948	-0.048065	0.045471	0.011749	-0.083771	0.25406	0.22659	0.017853	-0.003052	0.078888	-0.047455	0.007019	-0.73715	-0.35782	-0.1915	0.00412	-0.095825	-0.019073	0.15533	-0.11475	-0.062561	-0.05188	-0.23819	0.003204	0.011444	-0.007629	-0.31052	-0.010223	-0.43366	0.38238	0.000153	-0.018921
35.061	-0.073242	0.015106	0.067902	-0.005188	-0.11658	0.37933	0.22217	0.011902	0.13977	0.086517	-0.001526	-0.001068	-0.47073	-0.30304	0.080109	0.000916	-0.055542	-0.031433	0.18082	-0.12009	-0.054474	-0.068817	-0.21927	-0.007935	0.039368	-0.003052	-0.38345	-0.004272	0.401	0.38208	-0.005493	-0.00824
35.062	-0.065765	0.048828	0.06134	-0.009613	-0.064697	0.16861	0.23178	0.005798	0.30243	0.088196	-0.036621	0.007782	0.007172	-0.19424	0.25284	0.014038	-0.016022	-0.073395	0.21042	-0.0383	-0.054626	-0.073242	-0.24887	-0.038147	0.023346	-0.011597	-0.84473	-0.004578	0.99152	0.50262	0	-0.010223
35.063	-0.061951	0.036163	0.064087	0.005341	0.000763	-0.049286	0.2214	-0.012817	0.38956	0.16739	-0.016327	0.005188	0.10086	-0.059509	0.30975	0.022278	-0.020447	-0.079498	0.16708	0.061646	-0.066528	-0.049286	-0.25101	-0.027924	0.036926	-0.012054	-0.30014	-0.00885	1.0075	0.47577	-0.000916	-0.011444
35.064	-0.043335	0.010986	0.018463	0.029449	-0.075989	-0.12344	0.16602	-0.01297	0.2655	0.26627	0.000153	0.006104	0.040894	-0.074921	0.28168	0.024109	0.048981	-0.083313	0.13123	0.12894	-0.052185	0.022278	-0.23086	-0.11993	0.044098	-0.015259	0.70511	-0.001068	0.19165	0.29999	-0.002289	-0.011292
35.065	-0.022736	0.020142	0.007172	0.00412	-0.20325	-0.13382	0.069122	-0.001373	-0.051575	0.1236	0.001984	0.010529	-0.032501	-0.055695	0.20248	0.029602	0.06546	-0.066071	0.16068	0.09964	-0.028076	0.04715	-0.19226	-0.1181	0.031128	-0.007019	0.32394	-0.002899	-0.2684	0.088348	0.012665	-0.012817
35.066	-0.021362	-0.011902	0.036011	0.033569	-0.11932	-0.11536	0.13016	0.007019	-0.40192	0.052185	0.003815	0.006866	-0.088959	-0.074005	0.11612	0.035248	0.090332	-0.1004	0.19394	0.015717	-0.055847	0.03067	-0.17914	-0.10498	0.005188	-0.005035	-0.079041	-0.001373	-0.70679	0.005341	-0.000153	-0.015411
35.067	-0.00351	0.011749	0.019684	0.031738	0.011292	-0.21957	0.15472	0.025787	-0.46387	-0.035706	-0.007019	0.020142	-0.080109	-0.1207	0.083618	0.031281	0.11887	-0.10834	0.15701	0.034485	-0.063782	-0.040894	-0.1831	-0.16663	-0.013733	-0.010071	-0.66208	0.00061	-0.4631	0.032349	0.000458	-0.014343
35.068	-0.003662	-0.017395	0.075226	0.017548	0.10788	-0.23987	0.078583	0.019531	-0.3363	-0.16251	0.057068	0.021973	-0.08316	-0.05249	0.031281	0.040588	0.11841	-0.068817	0.14832	-0.008087	-0.038757	-0.12695	-0.15671	-0.13855	-0.040131	-0.002747	-0.39429	0.001526	-0.31784	-0.092316	-0.001526	-0.018921
35.069	0.00351	-0.040131	0.07843	0.012207	0.12207	-0.074158	0.041046	0.024567	-0.27145	-0.097046	0.076752	0.014954	-0.066528	0.020905	0.43274	0.033112	0.12756	-0.09613	0.10346	-0.010986	-0.007477	-0.15289	-0.17441	-0.089417	-0.026703	-0.002594	0.9137	-0.00351	-0.45761	-0.10544	0.005646	-0.016479
35.07	0.007324	-0.090637	0.038452	0.030823	0.10696	0.12192	-0.11795	0.00946	-0.20737	-0.028992	0.1239	0.013428	-0.06073	0.086823	0.22949	0.023804	0.085602	-0.19928	0.13077	-0.002899	-0.021362	-0.020752	-0.224	-0.011139	-0.024719	-0.000305	0.85922	-0.007324	-0.21454	-0.070038	-0.005493	-0.010834
35.071	0.042114	-0.13138	0.019989	0.026855	0.11795	0.077057	-0.15839	-0.001678	-0.028992	0.007935	0.24094	0.010986	-0.057068	0.13077	0.36774	0.032501	0.043793	-0.17395	0.10193	-0.070648	-0.041656	0.035706	-0.30838	0.052338	0.005341	-0.000458	0.55008	-0.002747	-0.038605	-0.093689	-0.001526	-0.019073
35.072	0.052338	-0.16769	0.021362	0.010376	0.15106	0.044403	-0.058441	-0.007324	0.030975	0.027313	0.1413	0.010071	-0.054321	0.1471	0.4866	0.023346	0.046539	-0.10819	0.1445	0.005341	-0.052032	0.0354	-0.26352	0.072632	-0.019531	-0.001068	-0.57434	-0.00473	-0.11826	-0.086517	-0.001526	-0.016174
35.073	0.020752	-0.15289	0.006561	0.019226	0.19196	0.10941	0.062256	-0.007172	0.081177	-0.006409	-0.1474	0.006409	0.048981	0.18219	0.11871	0.018005	0.025635	-0.1294	0.19486	0.071106	-0.046692	0.023651	-0.20477	0.06958	-0.014343	-0.013428	-0.78369	-0.001526	-0.026245	0.033569	-0.000763	-0.019836
35.074	0.009155	-0.20218	0.043488	0.009766	0.1207	0.20279	0.14725	-0.000458	0.036163	-0.045471	-0.16098	0.023499	0.082703	0.19287	0.064697	0.018005	0.038452	-0.18723	0.1947	0.06134	-0.008545	-0.018158	-0.19196	0.023956	-0.011292	-0.00412	-0.44434	-0.002747	0.29709	0.12451	0.000153	-0.02182
35.075	0.005951	-0.19012	-0.12024	0.009918	0.13138	0.36484	0.085907	-0.003357	-0.095367	-0.027618	-0.17273	0.007629	0.051117	0.23041	0.053101	-0.00061	0.055847	-0.17548	0.22781	0.06958	0.040436	-0.10162	-0.18799	0.088654	-0.040131	0.002594	-0.38956	-0.002289	0.72769	0.007782	-0.000916	-0.00473
35.076	0.002594	-0.17563	-0.24857	0.016022	0.018616	0.45197	0.033569	-0.005341	-0.17578	0.016632	-0.12604	0.012207	0.009155	0.19699	-0.26245	-0.014954	0.051727	-0.26428	0.13565	0.046539	0.037079	-0.006561	-0.21057	0.076447	-0.032196	0.005798	-0.1918	-0.001068	0.074005	-0.13809	-0.000305	-0.022736
35.077	-0.001373	-0.14206	-0.26215	0.009766	-0.059509	0.28168	-0.028229	0.006409	-0.024719	0.026855	-0.07019	0.013733	-0.019989	0.15808	-0.25024	-0.014801	0.066833	-0.28305	0.12344	0.038452	0.026398	0.056915	-0.2211	0.059509	-0.039673	-0.000916	0.26993	-0.002594	-0.50156	-0.18707	-0.003204	-0.021057
35.078	-0.001526	-0.065002	-0.028992	0.023346	-0.071869	0.22934	0.092468	-0.00885	0.11597	0.019531	-0.010834	0.011139	0.002594	0.12466	-0.17822	-0.018616	0.009003	-0.24139	0.21698	0.04364	0.051422	0.13763	-0.19531	0.027313	-0.04364	-0.001831	0.058746	-0.003357	-0.69839	-0.22781	-0.00061	-0.00885
35.079	-0.003967	-0.078888	0.068512	0.026703	-0.068817	0.008087	0.12405	-0.017853	0.11765	0.028076	0.01358	0.014191	-0.001831	0.1004	-0.21698	-0.028992	-0.052643	-0.2446	0.26413	0.042877	0.029907	0.05188	-0.18097	-0.031586	-0.062866	-0.003357	-0.032806	-0.001984	-0.20081	-0.23666	0.000153	-0.002594
35.08	0.00824	-0.055237	0.10971	0.018616	-0.023193	0.030823	0.15762	-0.011444	0.15717	0.035248	0.015106	0.009155	-0.04776	0.14572	-0.10864	-0.025482	-0.084381	-0.2536	0.10681	0.033417	0.02533	-0.013733	-0.15106	-0.052948	-0.06073	0.000305	0.10803	-0.002289	0.30563	-0.038452	0	-0.013428
35.081	0.023499	-0.045776	0.1442	0.012512	0.056305	0.15076	0.20981	-0.004883	0.29495	0.025482	0.018768	0.00885	-0.057831	0.14618	-0.15167	-0.042419	-0.099182	-0.27039	0.006409	-0.029449	-0.000763	-0.11658	-0.1799	-0.077057	-0.077972	-0.011597	0.22339	-0.003052	0.26459	0.30319	0.001526	-0.012054
35.082	0.042267	-0.028229	0.1413	0.021973	0.12329	0.25696	0.30487	0.016174	0.42557	0.017395	0.000153	0.013428	-0.027313	0.12756	-0.16892	-0.035706	-0.071106	-0.24811	0.002289	-0.054932	-0.03891	-0.2066	-0.16419	-0.097198	-0.092163	-0.02243	0.1622	-0.002136	0.51559	0.49454	0.001678	-0.014648
35.083	0.030518	-0.000458	0.004272	0.032043	0.10025	0.31235	0.34225	0.021515	0.42175	0.018768	0.071564	0.00473	-0.038757	0.11932	-0.063934	-0.044708	-0.075989	-0.27924	0.037537	-0.061646	-0.053558	-0.24124	-0.17746	-0.10574	-0.093231	-0.016022	0.052032	-0.002594	0.19455	0.42358	-0.001526	-0.01709
35.084	0.04364	0.020294	-0.057068	0.019226	0.03952	0.27069	0.19898	0.031586	0.51743	0.025024	0.080566	0.005188	-0.067444	0.13504	0.081482	-0.046234	-0.038757	-0.26657	0.0177	-0.039063	-0.044708	-0.26932	-0.1918	-0.11505	-0.065155	-0.015259	-0.042419	0.003967	-0.10513	0.29678	-0.000305	-0.011444
35.085	0.054626	0.01709	-0.020599	0.022583	-0.004883	0.057983	0.03479	0.016174	0.36194	0.022736	0.005188	0.004425	-0.07782	0.1564	0.13214	-0.033875	-0.025787	-0.2861	0.022736	0.000458	-0.067444	-0.20264	-0.15823	-0.11169	-0.075836	-0.007324	-0.20493	-0.00351	-0.25085	0.15213	-0.002899	-0.014343
35.086	0.036774	0.052795	-0.063019	0.014343	0.011139	0.016479	-0.002747	0.006561	0.10162	0.003357	-0.039063	-0.001984	-0.064697	0.15243	0.39093	-0.028687	-0.019531	-0.24582	0.022736	0.049438	-0.062256	0.016479	-0.18997	-0.11459	-0.059814	0.006256	-0.20813	-0.002747	0.60577	0.028992	-0.003662	-0.005798
35.087	0.038452	0.047607	-0.14267	-0.020142	-0.001068	-0.17716	0.01709	0.002899	-0.16693	-0.007935	-0.02533	-0.010376	-0.082245	0.19226	0.61462	-0.030975	0.02655	-0.31296	0.041962	0.070953	0.01297	0.10696	-0.1915	-0.14481	-0.067139	-0.002899	0.03006	-0.005493	0.018921	0.016937	0.000916	-0.014191
